<?xml version="1.0" standalone="no"?>
<!DOCTYPE svg PUBLIC "-//W3C//DTD SVG 20010904//EN"
 "http://www.w3.org/TR/2001/REC-SVG-20010904/DTD/svg10.dtd">
<svg version="1.0" xmlns="http://www.w3.org/2000/svg"
 width="128.000000pt" height="75.000000pt" viewBox="0 0 128.000000 75.000000"
 preserveAspectRatio="xMidYMid meet">
<metadata>
Created by potrace 1.10, written by Peter Selinger 2001-2011
</metadata>
<g transform="translate(0.000000,75.000000) scale(0.100000,-0.100000)"
fill="#FFA500" stroke="none">
<path d="M989 651 c-29 -23 -31 -81 -4 -111 24 -26 78 -27 105 0 65 65 -29
169 -101 111z m69 -29 c29 -16 28 -35 -3 -52 -13 -7 -22 -17 -18 -23 3 -5 -6
-2 -20 7 -25 17 -28 30 -13 55 7 11 6 12 -5 6 -12 -7 -12 -6 -1 7 14 18 26 18
60 0z"/>
<path d="M270 465 c-53 -17 -106 -64 -128 -114 -10 -24 -16 -81 -19 -174 l-4
-137 65 0 64 0 4 130 c3 124 4 131 29 155 19 20 36 26 72 27 l47 1 0 63 0 64
-42 -1 c-24 0 -63 -7 -88 -14z m98 -41 c4 -25 -11 -37 -59 -53 -34 -11 -83
-51 -63 -51 5 0 2 -4 -6 -10 -10 -6 -16 -38 -20 -122 -5 -110 -6 -113 -29
-116 -13 -2 -27 2 -32 9 -10 17 -9 193 2 232 5 18 17 38 26 45 13 9 14 12 2
13 -10 0 -10 2 -1 6 6 2 9 10 5 16 -4 7 2 5 12 -3 10 -8 16 -10 12 -4 -7 12
41 51 56 46 4 -1 7 1 7 6 0 4 19 7 43 7 35 0 42 -3 45 -21z"/>
<path d="M590 471 c-101 -31 -160 -111 -160 -215 0 -46 30 -119 63 -154 75
-81 229 -83 270 -5 l14 26 7 -42 6 -41 66 0 c64 0 66 1 59 22 -19 65 -25 99
-25 162 0 94 -17 143 -65 192 -56 56 -155 79 -235 55z m136 -41 c5 0 2 5 -6
10 -13 8 -12 10 3 10 9 0 17 -4 17 -10 0 -5 6 -10 13 -10 7 0 22 -8 33 -18 10
-10 28 -24 39 -31 20 -12 20 -12 0 -7 -19 6 -19 5 -2 -8 23 -18 37 -68 37
-136 1 -30 5 -74 9 -97 13 -69 -24 -86 -69 -32 -24 30 -27 31 -43 15 -9 -10
-17 -15 -17 -12 0 3 -11 -5 -25 -18 -25 -24 -82 -29 -133 -12 -22 7 -65 44
-91 79 -22 28 -41 135 -27 150 6 7 11 19 11 27 -1 8 8 23 19 33 12 10 15 16 9
12 -9 -4 -11 -1 -7 10 4 10 13 14 22 10 9 -3 13 -3 9 1 -6 7 28 37 46 40 4 1
8 3 10 4 1 1 22 4 45 5 24 2 46 6 50 9 3 3 13 -1 22 -9 9 -8 21 -15 26 -15z"/>
<path d="M611 376 c-73 -26 -101 -113 -61 -185 13 -22 27 -38 32 -35 4 3 8 0
8 -6 0 -6 5 -8 10 -5 6 3 10 1 10 -5 0 -6 11 -8 25 -6 14 3 25 1 25 -4 0 -13
29 -20 36 -8 5 7 2 8 -6 3 -9 -5 -11 -4 -6 3 4 7 18 12 31 12 13 0 27 5 30 10
4 6 11 7 17 4 7 -4 8 -2 4 4 -8 13 17 56 26 46 6 -5 2 44 -6 81 -3 11 -5 26
-5 33 -1 7 -5 11 -10 8 -4 -3 -13 5 -19 19 -7 15 -25 28 -49 34 -46 13 -49 13
-92 -3z m121 -46 c28 -28 30 -35 26 -82 -7 -66 -31 -88 -97 -88 -49 1 -71 12
-89 47 -57 105 76 207 160 123z"/>
<path d="M970 260 l0 -220 65 0 65 0 0 220 0 220 -65 0 -65 0 0 -220z m100 13
c3 -103 1 -169 -4 -165 -5 3 -7 -2 -3 -11 3 -9 -1 -21 -10 -29 -14 -11 -17
-11 -21 1 -4 11 -6 11 -13 0 -6 -10 -9 -8 -9 9 0 12 -6 22 -12 23 -7 0 -8 2
-3 5 6 2 9 64 7 164 -3 127 -1 160 10 160 10 0 9 3 -2 10 -11 8 -6 10 20 8
l35 -3 5 -172z"/>
</g>
</svg>
